<svg fill="#FFFFFF" xmlns:dc="http://purl.org/dc/elements/1.1/" xmlns:cc="http://creativecommons.org/ns#" xmlns:rdf="http://www.w3.org/1999/02/22-rdf-syntax-ns#" xmlns:svg="http://www.w3.org/2000/svg" xmlns="http://www.w3.org/2000/svg" xmlns:sodipodi="http://sodipodi.sourceforge.net/DTD/sodipodi-0.dtd" xmlns:inkscape="http://www.inkscape.org/namespaces/inkscape" viewBox="0 0 100 100" version="1.1" x="0px" y="0px"><g transform="translate(0,-952.36216)"><path style="color:#000000;font-style:normal;font-variant:normal;font-weight:normal;font-stretch:normal;font-size:medium;line-height:normal;font-family:sans-serif;text-indent:0;text-align:start;text-decoration:none;text-decoration-line:none;text-decoration-style:solid;text-decoration-color:#000000;letter-spacing:normal;word-spacing:normal;text-transform:none;direction:ltr;block-progression:tb;writing-mode:lr-tb;baseline-shift:baseline;text-anchor:start;white-space:normal;clip-rule:nonzero;display:inline;overflow:visible;visibility:visible;opacity:1;isolation:auto;mix-blend-mode:normal;color-interpolation:sRGB;color-interpolation-filters:linearRGB;solid-color:#000000;solid-opacity:1;fill:#FFFFFF;fill-opacity:1;fill-rule:nonzero;stroke:none;stroke-width:5;stroke-linecap:round;stroke-linejoin:round;stroke-miterlimit:4;stroke-dasharray:none;stroke-dashoffset:0;stroke-opacity:1;color-rendering:auto;image-rendering:auto;shape-rendering:auto;text-rendering:auto;enable-background:accumulate" d="m 50.000002,957.36215 c -24.826837,0 -45.0000022,20.17317 -45.0000022,45.00005 0,24.8268 20.1731652,45 45.0000022,45 24.826836,0 44.999998,-20.1732 44.999998,-45 0,-24.82688 -20.173162,-45.00005 -44.999998,-45.00005 z m 0,4.41194 c 22.44245,0 40.588064,18.14561 40.588064,40.58811 0,22.4424 -18.145614,40.588 -40.588064,40.588 -22.442451,0 -40.5880684,-18.1456 -40.5880684,-40.588 0,-22.4425 18.1456174,-40.58811 40.5880684,-40.58811 z"></path><path d="m 49.782152,972.36802 c -1.572581,0.0999 -2.878919,1.28229 -3.135226,2.83714 -0.20009,1.21355 0.28427,2.41007 1.196966,3.16495 l -6.627845,10.05488 3.113387,5.6681 -1.947622,0 0,1.99755 1.732258,0 -3.795366,22.57706 -1.151718,0 0,1.9976 -2.857442,0 0,9.7007 -0.694473,0 0,1.9975 28.769567,0 0,-1.9975 -0.692903,0 0,-9.7007 -2.863689,0 0,-1.9976 -1.15328,0 -3.71266,-22.57706 1.651105,0 0,-1.99755 -1.947622,0 3.111834,-5.6681 -2.397074,-3.63614 -3.800043,3.04 -1.24848,-1.55909 3.945187,-3.1555 -3.121188,-4.73639 c 1.03699,-0.85538 1.490184,-2.27153 1.095528,-3.59255 -0.45105,-1.50985 -1.896638,-2.51718 -3.469201,-2.4173 z" style="color:#000000;font-style:normal;font-variant:normal;font-weight:normal;font-stretch:normal;font-size:medium;line-height:normal;font-family:sans-serif;text-indent:0;text-align:start;text-decoration:none;text-decoration-line:none;text-decoration-style:solid;text-decoration-color:#000000;letter-spacing:normal;word-spacing:normal;text-transform:none;direction:ltr;block-progression:tb;writing-mode:lr-tb;baseline-shift:baseline;text-anchor:start;white-space:normal;clip-rule:nonzero;display:inline;overflow:visible;visibility:visible;opacity:1;isolation:auto;mix-blend-mode:normal;color-interpolation:sRGB;color-interpolation-filters:linearRGB;solid-color:#000000;solid-opacity:1;fill:#FFFFFF;fill-opacity:1;fill-rule:evenodd;stroke:none;stroke-width:2.5;stroke-linecap:butt;stroke-linejoin:miter;stroke-miterlimit:4;stroke-dasharray:none;stroke-dashoffset:0;stroke-opacity:1;color-rendering:auto;image-rendering:auto;shape-rendering:auto;text-rendering:auto;enable-background:accumulate"></path></g></svg>