<svg xmlns:dc="http://purl.org/dc/elements/1.1/" xmlns:cc="http://creativecommons.org/ns#" xmlns:rdf="http://www.w3.org/1999/02/22-rdf-syntax-ns#" xmlns:svg="http://www.w3.org/2000/svg" xmlns="http://www.w3.org/2000/svg" xmlns:sodipodi="http://sodipodi.sourceforge.net/DTD/sodipodi-0.dtd" xmlns:inkscape="http://www.inkscape.org/namespaces/inkscape" viewBox="0 0 100 100" version="1.1" x="0px" y="0px"><g transform="translate(0,-952.36216)"><path style="color:#000000;font-style:normal;font-variant:normal;font-weight:normal;font-stretch:normal;font-size:medium;line-height:normal;font-family:sans-serif;text-indent:0;text-align:start;text-decoration:none;text-decoration-line:none;text-decoration-style:solid;text-decoration-color:#000000;letter-spacing:normal;word-spacing:normal;text-transform:none;direction:ltr;block-progression:tb;writing-mode:lr-tb;baseline-shift:baseline;text-anchor:start;white-space:normal;clip-rule:nonzero;display:inline;overflow:visible;visibility:visible;opacity:1;isolation:auto;mix-blend-mode:normal;color-interpolation:sRGB;color-interpolation-filters:linearRGB;solid-color:#000000;solid-opacity:1;fill:#000000;fill-opacity:1;fill-rule:nonzero;stroke:none;stroke-width:5;stroke-linecap:round;stroke-linejoin:round;stroke-miterlimit:4;stroke-dasharray:none;stroke-dashoffset:0;stroke-opacity:1;color-rendering:auto;image-rendering:auto;shape-rendering:auto;text-rendering:auto;enable-background:accumulate" d="M 50.000863,957.36302 C 25.174502,957.36302 5,977.53581 5,1002.3621 c 0,24.8265 20.174502,44.9992 45.000863,44.9992 C 74.827224,1047.3613 95,1027.1886 95,1002.3621 95,977.53581 74.827224,957.36302 50.000863,957.36302 Z m 0,4.41185 c 22.442021,0 40.587291,18.14527 40.587291,40.58723 0,22.4421 -18.14527,40.5874 -40.587291,40.5874 -22.44202,0 -40.5890136,-18.1453 -40.5890136,-40.5874 0,-22.44196 18.1469936,-40.58723 40.5890136,-40.58723 z"></path><path d="m 49.852583,974.12937 c -0.892124,0.0353 -1.770702,0.39177 -2.444503,1.06176 -1.088079,1.08178 -1.34618,2.69855 -0.767649,4.0491 l -0.842514,0.41242 -4.29966,-2.14768 0.66557,1.9953 3.002554,8.99673 -1.475416,0 0,1.74224 1.351553,0 -3.050185,28.86036 -0.96501,0 0,1.7422 -2.4132,0 0,8.014 -0.530823,0 0,1.7422 23.833923,0 0,-1.7422 -0.530816,0 0,-8.014 -2.413201,0 0,-1.7422 -0.965011,0 -2.984852,-28.86036 1.286222,0 0,-1.74224 -1.475416,0 3.668117,-10.99203 -4.298301,2.14645 -0.832982,-0.41242 c 0.620888,-1.45168 0.251559,-3.19056 -0.996313,-4.24667 -0.725315,-0.61386 -1.629955,-0.89869 -2.522087,-0.86296 z" style="color:#000000;font-style:normal;font-variant:normal;font-weight:normal;font-stretch:normal;font-size:medium;line-height:normal;font-family:sans-serif;text-indent:0;text-align:start;text-decoration:none;text-decoration-line:none;text-decoration-style:solid;text-decoration-color:#000000;letter-spacing:normal;word-spacing:normal;text-transform:none;direction:ltr;block-progression:tb;writing-mode:lr-tb;baseline-shift:baseline;text-anchor:start;white-space:normal;clip-rule:nonzero;display:inline;overflow:visible;visibility:visible;opacity:1;isolation:auto;mix-blend-mode:normal;color-interpolation:sRGB;color-interpolation-filters:linearRGB;solid-color:#000000;solid-opacity:1;fill:#000000;fill-opacity:1;fill-rule:evenodd;stroke:none;stroke-width:2.5;stroke-linecap:butt;stroke-linejoin:miter;stroke-miterlimit:4;stroke-dasharray:none;stroke-dashoffset:0;stroke-opacity:1;color-rendering:auto;image-rendering:auto;shape-rendering:auto;text-rendering:auto;enable-background:accumulate"></path></g></svg>