<svg fill="#FFFFFF" xmlns:dc="http://purl.org/dc/elements/1.1/" xmlns:cc="http://creativecommons.org/ns#" xmlns:rdf="http://www.w3.org/1999/02/22-rdf-syntax-ns#" xmlns:svg="http://www.w3.org/2000/svg" xmlns="http://www.w3.org/2000/svg" xmlns:sodipodi="http://sodipodi.sourceforge.net/DTD/sodipodi-0.dtd" xmlns:inkscape="http://www.inkscape.org/namespaces/inkscape" viewBox="0 0 100 100" version="1.1" x="0px" y="0px"><g transform="translate(0,-952.36216)"><path style="color:#000000;font-style:normal;font-variant:normal;font-weight:normal;font-stretch:normal;font-size:medium;line-height:normal;font-family:sans-serif;text-indent:0;text-align:start;text-decoration:none;text-decoration-line:none;text-decoration-style:solid;text-decoration-color:#000000;letter-spacing:normal;word-spacing:normal;text-transform:none;direction:ltr;block-progression:tb;writing-mode:lr-tb;baseline-shift:baseline;text-anchor:start;white-space:normal;clip-rule:nonzero;display:inline;overflow:visible;visibility:visible;opacity:1;isolation:auto;mix-blend-mode:normal;color-interpolation:sRGB;color-interpolation-filters:linearRGB;solid-color:#000000;solid-opacity:1;fill:#FFFFFF;fill-opacity:1;fill-rule:nonzero;stroke:none;stroke-width:5;stroke-linecap:round;stroke-linejoin:round;stroke-miterlimit:4;stroke-dasharray:none;stroke-dashoffset:0;stroke-opacity:1;color-rendering:auto;image-rendering:auto;shape-rendering:auto;text-rendering:auto;enable-background:accumulate" d="m 50,957.36216 c -24.826836,0 -45.0000008,20.17316 -44.9999999,44.99994 0,24.8269 20.1731639,45.0001 44.9999999,45.0001 24.826836,0 45,-20.1732 45,-45.0001 0,-24.82678 -20.173164,-44.99994 -45,-44.99994 z m 0,4.41193 c 22.442449,0 40.588066,18.14561 40.588066,40.58801 0,22.4425 -18.145617,40.5881 -40.588066,40.5881 -22.44245,0 -40.5880662,-18.1456 -40.5880662,-40.5881 0,-22.4424 18.1456162,-40.58801 40.5880662,-40.58801 z"></path><path d="m 44.213666,973.24371 -3.962958,8.23779 2.149238,5.58339 c 0,0 -0.148673,7.42449 -0.157179,11.13369 l -3.910121,20.22942 -2.36589,0 0,11.1336 -0.94186,0 0,1.9196 29.95073,0 0,-1.9196 -0.940545,0 0,-11.1336 -2.365891,0 -3.91012,-20.22942 -0.149274,-11.13369 c 0,0 1.427464,-3.72888 2.141341,-5.58339 l -3.962966,-8.23779 z" style="color:#000000;font-style:normal;font-variant:normal;font-weight:normal;font-stretch:normal;font-size:medium;line-height:normal;font-family:sans-serif;text-indent:0;text-align:start;text-decoration:none;text-decoration-line:none;text-decoration-style:solid;text-decoration-color:#000000;letter-spacing:normal;word-spacing:normal;text-transform:none;direction:ltr;block-progression:tb;writing-mode:lr-tb;baseline-shift:baseline;text-anchor:start;white-space:normal;clip-rule:nonzero;display:inline;overflow:visible;visibility:visible;opacity:1;isolation:auto;mix-blend-mode:normal;color-interpolation:sRGB;color-interpolation-filters:linearRGB;solid-color:#000000;solid-opacity:1;fill:#FFFFFF;fill-opacity:1;fill-rule:evenodd;stroke:none;stroke-width:2.5;stroke-linecap:butt;stroke-linejoin:miter;stroke-miterlimit:4;stroke-dasharray:none;stroke-dashoffset:0;stroke-opacity:1;color-rendering:auto;image-rendering:auto;shape-rendering:auto;text-rendering:auto;enable-background:accumulate"></path></g></svg>