<svg fill="#FFFFFF" xmlns:dc="http://purl.org/dc/elements/1.1/" xmlns:cc="http://creativecommons.org/ns#" xmlns:rdf="http://www.w3.org/1999/02/22-rdf-syntax-ns#" xmlns:svg="http://www.w3.org/2000/svg" xmlns="http://www.w3.org/2000/svg" xmlns:sodipodi="http://sodipodi.sourceforge.net/DTD/sodipodi-0.dtd" xmlns:inkscape="http://www.inkscape.org/namespaces/inkscape" viewBox="0 0 100 100" version="1.1" x="0px" y="0px"><g transform="translate(0,-952.36216)"><path style="color:#000000;font-style:normal;font-variant:normal;font-weight:normal;font-stretch:normal;font-size:medium;line-height:normal;font-family:sans-serif;text-indent:0;text-align:start;text-decoration:none;text-decoration-line:none;text-decoration-style:solid;text-decoration-color:#000000;letter-spacing:normal;word-spacing:normal;text-transform:none;direction:ltr;block-progression:tb;writing-mode:lr-tb;baseline-shift:baseline;text-anchor:start;white-space:normal;clip-rule:nonzero;display:inline;overflow:visible;visibility:visible;opacity:1;isolation:auto;mix-blend-mode:normal;color-interpolation:sRGB;color-interpolation-filters:linearRGB;solid-color:#000000;solid-opacity:1;fill:#FFFFFF;fill-opacity:1;fill-rule:nonzero;stroke:none;stroke-width:4;stroke-linecap:round;stroke-linejoin:round;stroke-miterlimit:4;stroke-dasharray:none;stroke-dashoffset:0;stroke-opacity:1;color-rendering:auto;image-rendering:auto;shape-rendering:auto;text-rendering:auto;enable-background:accumulate" d="m 50,957.86133 c -24.552982,0 -44.5,19.94702 -44.5,44.49997 0,24.553 19.947018,44.5 44.5,44.5 24.552982,0 44.5,-19.947 44.5,-44.5 0,-24.55295 -19.947018,-44.49997 -44.5,-44.49997 z m 0,4 c 22.391222,0 40.5,18.10878 40.5,40.49997 0,22.3912 -18.108778,40.5 -40.5,40.5 -22.391222,0 -40.5,-18.1088 -40.5,-40.5 0,-22.39119 18.108778,-40.49997 40.5,-40.49997 z"></path><path d="m 49.029079,968.18572 0,3.68948 -3.689502,0 0,1.94183 3.689502,0 0,3.68956 -4.382793,0 0,1.94184 -2.456127,0 3.038677,15.14637 -1.248543,0 0,1.94184 1.166625,0 -2.935526,27.96256 -0.755501,0 0,1.9418 -2.524392,0 0,8.1557 -0.388367,0 0,1.9419 22.913736,0 0,-1.9419 -0.388367,0 0,-8.1557 -2.524401,0 0,-1.9418 -0.755492,0 -2.873316,-27.96256 1.104415,0 0,-1.94184 -1.25006,0 3.040203,-15.14637 -2.456128,0 0,-1.94184 -4.382801,0 0,-3.68956 3.689502,0 0,-1.94183 -3.689502,0 0,-3.68948 -1.941842,0 z" style="color:#000000;font-style:normal;font-variant:normal;font-weight:normal;font-stretch:normal;font-size:medium;line-height:normal;font-family:sans-serif;text-indent:0;text-align:start;text-decoration:none;text-decoration-line:none;text-decoration-style:solid;text-decoration-color:#000000;letter-spacing:normal;word-spacing:normal;text-transform:none;direction:ltr;block-progression:tb;writing-mode:lr-tb;baseline-shift:baseline;text-anchor:start;white-space:normal;clip-rule:nonzero;display:inline;overflow:visible;visibility:visible;opacity:1;isolation:auto;mix-blend-mode:normal;color-interpolation:sRGB;color-interpolation-filters:linearRGB;solid-color:#000000;solid-opacity:1;fill:#FFFFFF;fill-opacity:1;fill-rule:evenodd;stroke:none;stroke-width:2.5;stroke-linecap:butt;stroke-linejoin:miter;stroke-miterlimit:4;stroke-dasharray:none;stroke-dashoffset:0;stroke-opacity:1;color-rendering:auto;image-rendering:auto;shape-rendering:auto;text-rendering:auto;enable-background:accumulate"></path></g></svg>