<svg xmlns:dc="http://purl.org/dc/elements/1.1/" xmlns:cc="http://creativecommons.org/ns#" xmlns:rdf="http://www.w3.org/1999/02/22-rdf-syntax-ns#" xmlns:svg="http://www.w3.org/2000/svg" xmlns="http://www.w3.org/2000/svg" xmlns:sodipodi="http://sodipodi.sourceforge.net/DTD/sodipodi-0.dtd" xmlns:inkscape="http://www.inkscape.org/namespaces/inkscape" viewBox="0 0 100 100" version="1.1" x="0px" y="0px"><g transform="translate(0,-952.36216)"><path style="color:#000000;font-style:normal;font-variant:normal;font-weight:normal;font-stretch:normal;font-size:medium;line-height:normal;font-family:sans-serif;text-indent:0;text-align:start;text-decoration:none;text-decoration-line:none;text-decoration-style:solid;text-decoration-color:#000000;letter-spacing:normal;word-spacing:normal;text-transform:none;direction:ltr;block-progression:tb;writing-mode:lr-tb;baseline-shift:baseline;text-anchor:start;white-space:normal;clip-rule:nonzero;display:inline;overflow:visible;visibility:visible;opacity:1;isolation:auto;mix-blend-mode:normal;color-interpolation:sRGB;color-interpolation-filters:linearRGB;solid-color:#000000;solid-opacity:1;fill:#000000;fill-opacity:1;fill-rule:nonzero;stroke:none;stroke-width:5;stroke-linecap:round;stroke-linejoin:round;stroke-miterlimit:4;stroke-dasharray:none;stroke-dashoffset:0;stroke-opacity:1;color-rendering:auto;image-rendering:auto;shape-rendering:auto;text-rendering:auto;enable-background:accumulate" d="m 50.000002,957.36217 c -24.826837,0 -45.0000022,20.17316 -45.0000022,45.00003 0,24.8268 20.1731652,45 45.0000022,45 24.826836,0 44.999998,-20.1732 44.999998,-45 0,-24.82687 -20.173162,-45.00003 -44.999998,-45.00003 z m 0,4.41193 c 22.44245,0 40.588064,18.14562 40.588064,40.5881 0,22.4424 -18.145614,40.588 -40.588064,40.588 -22.442451,0 -40.5880684,-18.1456 -40.5880684,-40.588 0,-22.44248 18.1456174,-40.5881 40.5880684,-40.5881 z"></path><path d="m 36.215487,974.12591 0,14.54447 1.926646,0 0,1.87825 1.075573,0 -1.066768,25.39997 -0.798242,0 0,1.8782 -3.129878,0 0,10.8936 -1.126931,0 0,1.8783 33.807928,0 0,-1.8783 -1.126932,0 0,-10.8936 -3.129879,0 0,-1.8782 -0.799707,0 -1.06677,-25.39997 1.075576,0 0,-1.87825 1.926639,0 0,-14.54447 -7.806343,0 0,5.84599 -2.07338,0 0,-5.84599 -7.806335,0 0,5.84599 -2.074853,0 0,-5.84599 -7.806344,0 z" style="color:#000000;font-style:normal;font-variant:normal;font-weight:normal;font-stretch:normal;font-size:medium;line-height:normal;font-family:sans-serif;text-indent:0;text-align:start;text-decoration:none;text-decoration-line:none;text-decoration-style:solid;text-decoration-color:#000000;letter-spacing:normal;word-spacing:normal;text-transform:none;direction:ltr;block-progression:tb;writing-mode:lr-tb;baseline-shift:baseline;text-anchor:start;white-space:normal;clip-rule:nonzero;display:inline;overflow:visible;visibility:visible;opacity:1;isolation:auto;mix-blend-mode:normal;color-interpolation:sRGB;color-interpolation-filters:linearRGB;solid-color:#000000;solid-opacity:1;fill:#000000;fill-opacity:1;fill-rule:evenodd;stroke:none;stroke-width:2.5;stroke-linecap:butt;stroke-linejoin:miter;stroke-miterlimit:4;stroke-dasharray:none;stroke-dashoffset:0;stroke-opacity:1;color-rendering:auto;image-rendering:auto;shape-rendering:auto;text-rendering:auto;enable-background:accumulate"></path></g></svg>