<svg fill="#FFFFFF" xmlns:dc="http://purl.org/dc/elements/1.1/" xmlns:cc="http://creativecommons.org/ns#" xmlns:rdf="http://www.w3.org/1999/02/22-rdf-syntax-ns#" xmlns:svg="http://www.w3.org/2000/svg" xmlns="http://www.w3.org/2000/svg" xmlns:sodipodi="http://sodipodi.sourceforge.net/DTD/sodipodi-0.dtd" xmlns:inkscape="http://www.inkscape.org/namespaces/inkscape" viewBox="0 0 100 100" version="1.1" x="0px" y="0px"><g transform="translate(0,-952.36216)"><path d="m 47.098908,971.01481 0.203364,8.7824 -4.632531,2.63502 -12.098351,12.72369 4.866919,5.46148 15.153959,-6.14567 0,3.45192 -13.880358,14.73495 0,5.2236 3.174519,0 0,2.2059 -3.286538,0 0,11.4157 -0.880666,0 0,2.2059 33.708206,0 0,-2.2059 -0.878937,0 0,-11.4157 -3.283105,0 0,-2.2059 1.411475,0 0,-1.8406 1.983649,0 0,-25.36124 -8.799743,-14.3041 -2.650601,2.4627 -3.041826,0 -7.069435,-7.82415 z" style="color:#000000;font-style:normal;font-variant:normal;font-weight:normal;font-stretch:normal;font-size:medium;line-height:normal;font-family:sans-serif;text-indent:0;text-align:start;text-decoration:none;text-decoration-line:none;text-decoration-style:solid;text-decoration-color:#000000;letter-spacing:normal;word-spacing:normal;text-transform:none;direction:ltr;block-progression:tb;writing-mode:lr-tb;baseline-shift:baseline;text-anchor:start;white-space:normal;clip-rule:nonzero;display:inline;overflow:visible;visibility:visible;opacity:1;isolation:auto;mix-blend-mode:normal;color-interpolation:sRGB;color-interpolation-filters:linearRGB;solid-color:#000000;solid-opacity:1;fill:#FFFFFF;fill-opacity:1;fill-rule:evenodd;stroke:none;stroke-width:2.5;stroke-linecap:butt;stroke-linejoin:miter;stroke-miterlimit:4;stroke-dasharray:none;stroke-dashoffset:0;stroke-opacity:1;color-rendering:auto;image-rendering:auto;shape-rendering:auto;text-rendering:auto;enable-background:accumulate"></path><path style="color:#000000;font-style:normal;font-variant:normal;font-weight:normal;font-stretch:normal;font-size:medium;line-height:normal;font-family:sans-serif;text-indent:0;text-align:start;text-decoration:none;text-decoration-line:none;text-decoration-style:solid;text-decoration-color:#000000;letter-spacing:normal;word-spacing:normal;text-transform:none;direction:ltr;block-progression:tb;writing-mode:lr-tb;baseline-shift:baseline;text-anchor:start;white-space:normal;clip-rule:nonzero;display:inline;overflow:visible;visibility:visible;opacity:1;isolation:auto;mix-blend-mode:normal;color-interpolation:sRGB;color-interpolation-filters:linearRGB;solid-color:#000000;solid-opacity:1;fill:#FFFFFF;fill-opacity:1;fill-rule:nonzero;stroke:none;stroke-width:5;stroke-linecap:round;stroke-linejoin:round;stroke-miterlimit:4;stroke-dasharray:none;stroke-dashoffset:0;stroke-opacity:1;color-rendering:auto;image-rendering:auto;shape-rendering:auto;text-rendering:auto;enable-background:accumulate" d="m 50,957.36216 c -24.826835,0 -45.0000002,20.1745 -45.0000002,45.00084 0,24.8264 20.1731652,44.9992 45.0000002,44.9992 24.826835,0 45,-20.1728 45,-44.9992 0,-24.82634 -20.173165,-45.00084 -45,-45.00084 z m 0,4.41185 c 22.442449,0 40.588066,18.14699 40.588066,40.58899 0,22.4421 -18.145617,40.5873 -40.588066,40.5873 -22.44245,0 -40.5880664,-18.1452 -40.5880664,-40.5873 0,-22.442 18.1456164,-40.58899 40.5880664,-40.58899 z"></path></g></svg>